# xmcd CD database file
#
# Track frame offsets:
#	150
#	18274
#	33520
#	52136
#	68974
#	86831
#	104112
#	123782
#	135756
#	152053
#	166857
#
# Disc length: 2501 seconds
#
# Revision: 0
# Processed by: cddbd v1.5.2PL0 Copyright (c) Steve Scherf et al.
# Submitted via: CDex 1.70beta2
#
DISCID=8d09c30b
DTITLE=Starlite Orchestra - Golden Sax Favorites
DYEAR=2006
DGENRE=Jazz
TTITLE0=Memory
TTITLE1=Words
TTITLE2=Up Where We Belong
TTITLE3=We've Got Tonight
TTITLE4=Even the Nights are Better
TTITLE5=Missing You
TTITLE6=Just the Way You Are
TTITLE7=Ti Amo
TTITLE8=Feelings
TTITLE9=The Way We Were
TTITLE10=My Way
EXTD=YEAR: 2006
EXTT0=
EXTT1=
EXTT2=
EXTT3=
EXTT4=
EXTT5=
EXTT6=
EXTT7=
EXTT8=
EXTT9=
EXTT10=
PLAYORDER=
